<svg width="71" height="40" viewBox="0 0 71 40" fill="none" xmlns="http://www.w3.org/2000/svg">
<g clip-path="url(#clip0_76_294)">
<path d="M26.3629 40L27.0699 39.9773L12.1552 19.9887L27.0699 0.0226629L26.3629 0H14.9831L0.0912213 19.9433H0L0.0456106 19.9887L0 20.0567H0.0912213L14.9831 40H26.3629Z" fill="white"/>
<path d="M35.2112 29.7111C40.6145 29.7111 44.9947 25.3582 44.9947 19.9887C44.9947 14.6192 40.6145 10.2663 35.2112 10.2663C29.8079 10.2663 25.4277 14.6192 25.4277 19.9887C25.4277 25.3582 29.8079 29.7111 35.2112 29.7111Z" fill="white"/>
<path d="M44.037 0L43.3301 0.0226629L58.2448 19.9887L43.3301 39.9773L44.037 40H55.4397L70.3316 20.0567H70.4L70.3772 19.9887L70.4 19.9433H70.3316L55.4397 0H44.037Z" fill="white"/>
</g>
<defs>
<clipPath id="clip0_76_294">
<rect width="70.4" height="40" fill="white"/>
</clipPath>
</defs>
</svg>